<svg width="16" height="16" viewBox="0 0 16 16" fill="none" xmlns="http://www.w3.org/2000/svg">
<path d="M10.5 6.33332C10.721 6.33332 10.933 6.42112 11.0892 6.5774C11.2455 6.73368 11.3333 6.94564 11.3333 7.16666V11.3333C11.3333 11.5543 11.2455 11.7663 11.0892 11.9226C10.933 12.0789 10.721 12.1667 10.5 12.1667H5.49999C5.27898 12.1667 5.06701 12.0789 4.91073 11.9226C4.75445 11.7663 4.66666 11.5543 4.66666 11.3333V7.16666C4.66666 6.70416 5.04166 6.33332 5.49999 6.33332H5.91666V5.49999C5.91666 4.94746 6.13615 4.41755 6.52685 4.02685C6.91755 3.63615 7.44746 3.41666 7.99999 3.41666C8.27358 3.41666 8.54449 3.47054 8.79725 3.57524C9.05001 3.67994 9.27967 3.8334 9.47313 4.02685C9.66658 4.22031 9.82004 4.44997 9.92474 4.70273C10.0294 4.95549 10.0833 5.2264 10.0833 5.49999V6.33332H10.5ZM7.99999 4.24999C7.66847 4.24999 7.35053 4.38169 7.11611 4.61611C6.88169 4.85053 6.74999 5.16847 6.74999 5.49999V6.33332H9.24999V5.49999C9.24999 5.16847 9.11829 4.85053 8.88387 4.61611C8.64945 4.38169 8.33151 4.24999 7.99999 4.24999Z" fill="rgb(157, 128, 24)"/>
</svg>
