<svg width="64" height="64" viewBox="0 0 512 512" fill="none" xmlns="http://www.w3.org/2000/svg">
<path d="M105.179 193.866V169.955H136.063C141.643 169.955 145.893 168.561 148.816 165.771C151.871 162.981 153.399 159.129 153.399 154.214V150.03L153.797 129.108H146.823L153.797 122.134C153.797 131.565 151.207 138.938 146.026 144.251C140.846 149.432 133.739 152.022 124.706 152.022C113.68 152.022 104.847 148.17 98.2049 140.466C91.5631 132.761 88.2421 122.333 88.2421 109.182V89.2568C88.2421 76.2388 91.5631 65.8775 98.2049 58.173C104.847 50.3356 113.68 46.4169 124.706 46.4169C133.739 46.4169 140.846 49.0737 146.026 54.3871C151.207 59.5678 153.797 66.8738 153.797 76.3052L146.823 69.3313H153.797L152.801 48.4095H182.689V155.21C182.689 167.166 178.571 176.597 170.335 183.505C162.232 190.412 151.14 193.866 137.06 193.866H105.179ZM135.466 126.119C140.912 126.119 145.163 124.591 148.218 121.536C151.273 118.348 152.801 113.898 152.801 108.186V90.2531C152.801 84.5411 151.273 80.1575 148.218 77.1023C145.163 73.9142 140.912 72.3201 135.466 72.3201C129.887 72.3201 125.569 73.9142 122.514 77.1023C119.592 80.1575 118.13 84.5411 118.13 90.2531V108.186C118.13 113.898 119.592 118.348 122.514 121.536C125.569 124.591 129.887 126.119 135.466 126.119ZM250.956 159.993C241.923 159.993 234.019 158.598 227.245 155.808C220.47 152.886 215.156 148.901 211.304 143.853C207.585 138.805 205.725 132.894 205.725 126.119H235.613C235.613 129.307 237.008 131.898 239.798 133.89C242.72 135.75 246.44 136.68 250.956 136.68H259.723C265.17 136.68 269.288 135.683 272.077 133.691C275 131.698 276.461 128.909 276.461 125.322C276.461 122.001 275.199 119.477 272.675 117.75C270.151 115.891 266.232 114.629 260.919 113.965L248.166 112.37C234.484 110.644 224.521 107.323 218.278 102.408C212.035 97.4927 208.913 89.9875 208.913 79.8918C208.913 69.2649 212.566 61.029 219.872 55.1842C227.178 49.3393 237.872 46.4169 251.952 46.4169H259.524C272.941 46.4169 283.634 49.3393 291.604 55.1842C299.574 61.029 303.559 68.8664 303.559 78.6963H273.671C273.671 76.0396 272.343 73.9142 269.686 72.3201C267.162 70.5933 263.775 69.7298 259.524 69.7298H251.952C247.037 69.7298 243.451 70.5933 241.193 72.3201C238.934 73.9142 237.805 76.3717 237.805 79.6926C237.805 82.7478 238.801 85.0725 240.794 86.6665C242.919 88.2606 246.24 89.3897 250.757 90.0539L264.505 91.8472C278.32 93.5741 288.549 97.0278 295.191 102.208C301.965 107.389 305.353 115.094 305.353 125.322C305.353 136.48 301.501 145.048 293.796 151.026C286.091 157.004 274.734 159.993 259.723 159.993H250.956ZM356.484 158L320.618 48.4095H351.502L369.834 109.979C370.896 113.699 371.959 117.75 373.022 122.134C374.085 126.518 374.882 130.038 375.413 132.695C376.077 130.038 376.874 126.518 377.804 122.134C378.867 117.75 379.863 113.765 380.793 110.179L398.925 48.4095H429.411L393.944 158H356.484Z" fill="white"/>
<path d="M148.578 476V330.543H195.801C205.897 330.543 214.664 332.47 222.103 336.322C229.675 340.174 235.519 345.62 239.637 352.661C243.888 359.568 246.014 367.738 246.014 377.169V429.175C246.014 438.474 243.888 446.643 239.637 453.683C235.519 460.724 229.675 466.236 222.103 470.222C214.664 474.074 205.897 476 195.801 476H148.578ZM178.466 448.104H195.801C201.912 448.104 206.827 446.377 210.546 442.924C214.266 439.47 216.125 434.887 216.125 429.175V377.169C216.125 371.59 214.266 367.074 210.546 363.62C206.827 360.166 201.912 358.439 195.801 358.439H178.466V448.104ZM268.651 476V330.543H315.476C330.221 330.543 341.977 333.931 350.744 340.706C359.511 347.347 363.895 356.38 363.895 367.804C363.895 374.18 362.367 379.76 359.312 384.542C356.39 389.324 352.405 393.043 347.357 395.7C342.442 398.357 337.062 399.685 331.217 399.685V400.283C337.726 400.15 343.637 401.346 348.951 403.87C354.397 406.393 358.781 410.179 362.102 415.227C365.423 420.275 367.083 426.518 367.083 433.957C367.083 442.459 365.024 449.898 360.906 456.274C356.921 462.517 351.209 467.366 343.77 470.819C336.331 474.273 327.498 476 317.269 476H268.651ZM297.543 451.89H316.074C322.583 451.89 327.697 450.163 331.416 446.709C335.136 443.256 336.995 438.474 336.995 432.363C336.995 426.253 335.136 421.47 331.416 418.017C327.697 414.43 322.583 412.637 316.074 412.637H297.543V451.89ZM297.543 389.125H315.077C320.922 389.125 325.505 387.597 328.826 384.542C332.147 381.354 333.807 377.103 333.807 371.789C333.807 366.343 332.147 362.159 328.826 359.236C325.505 356.181 320.922 354.653 315.077 354.653H297.543V389.125Z" fill="white"/>
<path d="M117.405 251.834L115.96 255.5L117.405 259.166C139.109 314.243 192.698 353.312 255.5 353.312C318.302 353.312 371.891 314.243 393.595 259.166L395.04 255.5L393.595 251.834C371.891 196.757 318.302 157.688 255.5 157.688C192.698 157.688 139.109 196.757 117.405 251.834ZM255.5 210.375C243.532 210.375 232.054 215.129 223.592 223.592C215.129 232.054 210.375 243.532 210.375 255.5C210.375 267.468 215.129 278.946 223.592 287.408C232.054 295.871 243.532 300.625 255.5 300.625C267.468 300.625 278.946 295.871 287.408 287.408C295.871 278.946 300.625 267.468 300.625 255.5C300.625 243.532 295.871 232.054 287.408 223.592C278.946 215.129 267.468 210.375 255.5 210.375ZM255.5 304.042C242.626 304.042 230.279 298.927 221.176 289.824C212.073 280.721 206.958 268.374 206.958 255.5C206.958 242.626 212.073 230.279 221.176 221.176C230.279 212.073 242.626 206.958 255.5 206.958C268.374 206.958 280.721 212.073 289.824 221.176C298.927 230.279 304.042 242.626 304.042 255.5C304.042 268.374 298.927 280.721 289.824 289.824C280.721 298.927 268.374 304.042 255.5 304.042Z" fill="#2E2E2E" stroke="url(#paint0_linear_395_239)" stroke-width="20"/>
<defs>
<linearGradient id="paint0_linear_395_239" x1="384.292" y1="167.688" x2="225.03" y2="408.372" gradientUnits="userSpaceOnUse">
<stop offset="0.21875" stop-color="#E4D335"/>
<stop offset="1" stop-color="#39D979"/>
</linearGradient>
</defs>
</svg>
