<svg width="256" height="256" viewBox="0 0 256 256" fill="none" xmlns="http://www.w3.org/2000/svg">
<g clip-path="url(#clip0_537_351)">
<path d="M153.839 127C148.306 127 143.872 125.067 140.539 121.2C137.206 117.333 135.539 112.1 135.539 105.5V91.5C135.539 84.9667 137.206 79.7667 140.539 75.9C143.872 71.9667 148.306 70 153.839 70C158.372 70 161.939 71.3333 164.539 74C167.139 76.6 168.439 80.2667 168.439 85L164.939 81.5H168.439L167.939 68V53H182.939V126H168.439V115.5H164.939L168.439 112C168.439 116.733 167.139 120.433 164.539 123.1C161.939 125.7 158.372 127 153.839 127ZM159.239 114C161.972 114 164.106 113.233 165.639 111.7C167.172 110.1 167.939 107.867 167.939 105V92C167.939 89.1333 167.172 86.9333 165.639 85.4C164.106 83.8 161.972 83 159.239 83C156.439 83 154.272 83.8 152.739 85.4C151.272 86.9333 150.539 89.1333 150.539 92V105C150.539 107.867 151.272 110.1 152.739 111.7C154.272 113.233 156.439 114 159.239 114ZM225.2 127C220.667 127 217.1 125.7 214.5 123.1C211.9 120.433 210.6 116.733 210.6 112L214.1 115.5H210.6V126H196.1V53H211.1V68L210.6 81.5H214.1L210.6 85C210.6 80.2667 211.9 76.6 214.5 74C217.1 71.3333 220.667 70 225.2 70C230.733 70 235.167 71.9667 238.5 75.9C241.833 79.7667 243.5 84.9667 243.5 91.5V105.5C243.5 112.1 241.833 117.333 238.5 121.2C235.167 125.067 230.733 127 225.2 127ZM219.8 114C222.6 114 224.733 113.233 226.2 111.7C227.733 110.1 228.5 107.867 228.5 105V92C228.5 89.1333 227.733 86.9333 226.2 85.4C224.733 83.8 222.6 83 219.8 83C217.067 83 214.933 83.8 213.4 85.4C211.867 86.9333 211.1 89.1333 211.1 92V105C211.1 107.867 211.867 110.1 213.4 111.7C214.933 113.233 217.067 114 219.8 114Z" fill="white"/>
<path d="M44.48 145.2C38.64 145.2 33.52 144.12 29.12 141.96C24.72 139.72 21.28 136.64 18.8 132.72C16.4 128.72 15.2 124.08 15.2 118.8V81.6C15.2 76.24 16.4 71.6 18.8 67.68C21.28 63.76 24.72 60.72 29.12 58.56C33.52 56.32 38.64 55.2 44.48 55.2C50.4 55.2 55.52 56.32 59.84 58.56C64.24 60.72 67.64 63.76 70.04 67.68C72.52 71.6 73.76 76.24 73.76 81.6H55.76C55.76 78.08 54.76 75.4 52.76 73.56C50.84 71.72 48.08 70.8 44.48 70.8C40.88 70.8 38.08 71.72 36.08 73.56C34.16 75.4 33.2 78.08 33.2 81.6V118.8C33.2 122.24 34.16 124.92 36.08 126.84C38.08 128.68 40.88 129.6 44.48 129.6C48.08 129.6 50.84 128.68 52.76 126.84C54.76 124.92 55.76 122.24 55.76 118.8V111.24H42.8V96H73.76V118.8C73.76 124.08 72.52 128.72 70.04 132.72C67.64 136.64 64.24 139.72 59.84 141.96C55.52 144.12 50.4 145.2 44.48 145.2Z" fill="white"/>
<path d="M89 188.2C82.84 188.2 77.48 187.16 72.92 185.08C68.36 183 64.84 180.08 62.36 176.32C59.88 172.56 58.64 168.12 58.64 163H76.64C76.64 165.96 77.76 168.32 80 170.08C82.32 171.76 85.44 172.6 89.36 172.6C93.12 172.6 96.04 171.76 98.12 170.08C100.28 168.4 101.36 166.08 101.36 163.12C101.36 160.56 100.56 158.36 98.96 156.52C97.36 154.68 95.12 153.44 92.24 152.8L83.36 150.76C75.92 149 70.12 145.76 65.96 141.04C61.88 136.24 59.84 130.4 59.84 123.52C59.84 118.4 61 113.96 63.32 110.2C65.72 106.36 69.08 103.4 73.4 101.32C77.72 99.24 82.84 98.2 88.76 98.2C97.72 98.2 104.8 100.44 110 104.92C115.28 109.32 117.92 115.28 117.92 122.8H99.92C99.92 120 98.92 117.8 96.92 116.2C95 114.6 92.2 113.8 88.52 113.8C85.08 113.8 82.44 114.6 80.6 116.2C78.76 117.72 77.84 119.92 77.84 122.8C77.84 125.36 78.56 127.56 80 129.4C81.52 131.16 83.64 132.36 86.36 133L95.72 135.16C103.48 136.92 109.36 140.12 113.36 144.76C117.36 149.32 119.36 155.16 119.36 162.28C119.36 167.4 118.08 171.92 115.52 175.84C113.04 179.76 109.52 182.8 104.96 184.96C100.48 187.12 95.16 188.2 89 188.2Z" fill="white"/>
<path d="M120.72 230L99 142.4H117.6L129.72 197.72C130.12 199.64 130.6 202.08 131.16 205.04C131.8 208 132.28 210.52 132.6 212.6C132.92 210.52 133.32 208 133.8 205.04C134.28 202.08 134.72 199.6 135.12 197.6L146.88 142.4H165L143.52 230H120.72Z" fill="white"/>
<path fill-rule="evenodd" clip-rule="evenodd" d="M159 54.7496C149.218 50.4106 138.391 48 127 48C108.864 48 92.1545 54.1116 78.8201 64.3876C81.6288 70.3392 82.9062 76.2839 82.9951 80.5287C94.4649 69.6639 109.954 63 127 63C132.798 63 138.416 63.771 143.757 65.216C144.507 64.9768 145.255 64.7381 146 64.5C154.442 61.8029 159 64 159 64V54.7496ZM163.25 179.752C178.2 169.458 188.558 152.974 190.622 134H205.694C203.097 163.579 184.199 188.482 158.036 199.67L159 195L163.25 179.752ZM106.304 203.261L104.5 194C104.5 194 96.7981 195.4 87.7085 195.551C93.4872 198.871 99.7254 201.48 106.304 203.261Z" fill="url(#paint0_linear_537_351)"/>
</g>
<defs>
<linearGradient id="paint0_linear_537_351" x1="205.694" y1="48" x2="54.9575" y2="174.921" gradientUnits="userSpaceOnUse">
<stop offset="0.21875" stop-color="#E4D335"/>
<stop offset="1" stop-color="#39D979"/>
</linearGradient>
<clipPath id="clip0_537_351">
<rect width="256" height="256" fill="white"/>
</clipPath>
</defs>
</svg>
